<?xml version="1.0"?>
<svg xmlns="http://www.w3.org/2000/svg" id="Layer_1" data-name="Layer 1" viewBox="0 0 512 512" width="512" height="512"><title>Car Documents dollar</title><path d="M362,298a91.891,91.891,0,1,1-24,3.16A92,92,0,0,1,362,298Z" style="fill:rgb(35, 184, 15)"/><path d="M338,142V301.16A92.1,92.1,0,0,0,275.72,422H86a28.005,28.005,0,0,1-28-28V58A28.005,28.005,0,0,1,86,30H226v84a28.005,28.005,0,0,0,28,28ZM287.54,265.53l5.46-41.3c0-9.21-6.62-17.46-15.82-17.46v-.01h.03L259.8,174.68c-5.39-9.67-11.85-17.79-21.85-17.79H158.8c-10,0-17.44,8.12-22.1,17.74l-18.1,32.06c-9.19.02-15.6,8.34-15.6,17.54l5.23,41.3a8.935,8.935,0,0,0,8.9,8.91h1.19v16.22a4.447,4.447,0,0,0,4.45,4.45h13.52a4.456,4.456,0,0,0,4.46-4.45V274.44h114.5v16.22a4.456,4.456,0,0,0,4.46,4.45h13.52a4.447,4.447,0,0,0,4.45-4.45V274.44h.95A8.937,8.937,0,0,0,287.54,265.53Z" style="fill: rgb(94, 110, 152);"/><path d="M338,142H254a28.005,28.005,0,0,1-28-28V30Z" style="fill: rgb(94, 110, 152);"/><path d="M293,224.23l-5.46,41.3a8.937,8.937,0,0,1-8.91,8.91H117.13a8.935,8.935,0,0,1-8.9-8.91L103,224.23c0-9.2,6.41-17.52,15.6-17.54l-.04.07H277.18v.01C286.38,206.77,293,215.02,293,224.23Zm-19.6,19.82a11.675,11.675,0,1,0-11.67,11.68A11.679,11.679,0,0,0,273.4,244.05Zm-127.45,0a11.675,11.675,0,1,0-11.67,11.68A11.672,11.672,0,0,0,145.95,244.05Z" style="fill:#ffff"/><path d="M277.68,275.16v15.5a4.447,4.447,0,0,1-4.45,4.45H259.71a4.456,4.456,0,0,1-4.46-4.45V274.44h22.43Z" style="fill:#ffff"/><path d="M118.6,206.69l18.1-32.06c4.66-9.62,12.1-17.74,22.1-17.74h79.15c10,0,16.46,8.12,21.85,17.79l17.41,32.08H252.79v-.61a18.46,18.46,0,1,0-36.92,0v.61H118.56Z" style="fill:#ffff"/><path d="M261.73,232.37a11.68,11.68,0,1,1-11.68,11.68A11.679,11.679,0,0,1,261.73,232.37Z" style="fill:orange"/><path d="M252.79,206.15v.61H215.87v-.61a18.46,18.46,0,1,1,36.92,0Z" style="fill:orange"/><path d="M134.28,232.37a11.68,11.68,0,1,1-11.68,11.68A11.672,11.672,0,0,1,134.28,232.37Z" style="fill:orange"/><path d="M140.75,275.16v15.5a4.456,4.456,0,0,1-4.46,4.45H122.77a4.447,4.447,0,0,1-4.45-4.45V274.44h22.43Z" style="fill:#ffff"/><path d="M362,291a99.823,99.823,0,0,0-17,1.465V142a7,7,0,0,0-2.05-4.95l-112-112A7,7,0,0,0,226,23H86A35.04,35.04,0,0,0,51,58V394a35.04,35.04,0,0,0,35,35H271a99,99,0,1,0,91-138ZM233,46.9,321.1,135H254a21.024,21.024,0,0,1-21-21ZM65,394V58A21.024,21.024,0,0,1,86,37H219v77a35.04,35.04,0,0,0,35,35h77V295.969A99.036,99.036,0,0,0,266.2,415H86A21.024,21.024,0,0,1,65,394Zm297,81a85.366,85.366,0,0,1-79.718-55.435h0A85.015,85.015,0,1,1,362,475Z" style="fill:#ffff"/><path d="M362,346.72a19.662,19.662,0,0,1,19.64,19.64,7,7,0,0,0,14,0,33.7,33.7,0,0,0-26.64-32.9V325.08a7,7,0,1,0-14,0v8.377A33.64,33.64,0,0,0,362,400a19.639,19.639,0,0,1,.058,39.277c-.02,0-.038,0-.058,0s-.038,0-.058,0A19.66,19.66,0,0,1,342.36,419.64a7,7,0,0,0-14,0,33.7,33.7,0,0,0,26.64,32.9v9.6a7,7,0,0,0,14,0v-9.6A33.64,33.64,0,0,0,362,386a19.64,19.64,0,0,1,0-39.28Z" style="fill:#ffff"/><path d="M247,327H103a7,7,0,0,0,0,14H247a7,7,0,0,0,0-14Z" style="fill:#ffff"/><path d="M210,361H103a7,7,0,0,0,0,14H210a7,7,0,0,0,0-14Z" style="fill:#ffff"/><path d="M285,290.66V280.245c5-2.323,9.483-7.782,9.691-14.189l5.329-40.909a7,7,0,0,0,.02-.917c0-11.852-7.927-21.76-18.383-23.989l-15.733-28.914C260.375,161.372,252.173,150,237.95,150H158.8c-11.483,0-21.527,7.573-28.3,21.429l-16.238,28.734C103.735,202.316,96,212.119,96,224.244a6.892,6.892,0,0,0,.056.873l5.022,40.92c.2,6.5,4.922,12.023,9.922,14.292V290.66c0,6.314,5.456,11.34,11.77,11.34h13.52A11.591,11.591,0,0,0,148,290.66V281H248v9.66A11.591,11.591,0,0,0,259.71,302h13.52C279.544,302,285,296.974,285,290.66ZM142.8,178.191c.072-.128.14-.262.2-.394,2.5-5.151,7.865-13.8,15.8-13.8h79.15c5.483,0,10.189,4.311,15.7,14.194L265.446,200h-6.468a25.463,25.463,0,0,0-49.3,0H130.551ZM243.838,200H224.822a11.452,11.452,0,0,1,19.016,0ZM118.056,213.846c.168.013.334.154.5.154H276.986c.065,0,.128-.11.194-.11,5.3,0,8.637,5.082,8.813,9.994L280.6,264.643a3.9,3.9,0,0,0-.061.682A1.746,1.746,0,0,1,278.63,267H117.13a1.752,1.752,0,0,1-1.9-1.69,5.369,5.369,0,0,0-.055-.77l-5.169-40.7C110.159,218.984,113.132,214.214,118.056,213.846ZM134,288h-9v-7h9Zm128,0v-7h9v7Z" style="fill:orange"/><path d="M171.26,256h53.48a7,7,0,0,0,0-14H171.26a7,7,0,0,0,0,14Z" style="fill:orange"/><path d="M134.28,262.73a18.68,18.68,0,1,0-18.68-18.68A18.7,18.7,0,0,0,134.28,262.73Zm0-23.36a4.68,4.68,0,1,1-4.68,4.68A4.681,4.681,0,0,1,134.28,239.37Z" style="fill:#ffff"/><path d="M261.73,262.73a18.68,18.68,0,1,0-18.68-18.68A18.7,18.7,0,0,0,261.73,262.73Zm0-23.36a4.68,4.68,0,1,1-4.68,4.68A4.68,4.68,0,0,1,261.73,239.37Z" style="fill:#ffff"/></svg>
