<?xml version="1.0"?>
<svg xmlns="http://www.w3.org/2000/svg" id="Layer_1" data-name="Layer 1" viewBox="0 0 512 512" width="512" height="512"><title>Service Application</title><path d="M462.83,299.92v35.32a40,40,0,0,1-40,40H89.17a40,40,0,0,1-40-40V299.92Z" style="fill: rgb(94, 110, 152);"/><path d="M462.83,91V299.92H49.17V91a40,40,0,0,1,40-40H422.83A40,40,0,0,1,462.83,91ZM434.11,233.34V197.23a10,10,0,0,0-10-10H417l-12.57-41.59a20,20,0,0,0-19.14-14.22H272.93a20.008,20.008,0,0,0-19.15,14.22l-12.57,41.59h-7.1a10,10,0,0,0-10,10v36.11a10,10,0,0,0,10,10h14.64v20.64a5.473,5.473,0,0,0,5.47,5.48H270.6a5.473,5.473,0,0,0,5.47-5.48V243.34H382.14v20.64a5.476,5.476,0,0,0,5.48,5.48h16.37a5.476,5.476,0,0,0,5.48-5.48V243.34h14.64A10,10,0,0,0,434.11,233.34ZM182.36,160.85a48.18,48.18,0,1,0-48.18,48.18A48.179,48.179,0,0,0,182.36,160.85Z" style="fill: rgb(94, 110, 152);"/><path d="M276.07,243.34H234.11a10,10,0,0,1-10-10V197.23a10,10,0,0,1,10-10h190a10,10,0,0,1,10,10v36.11a10,10,0,0,1-10,10H276.07Z" style="fill:#0000"/><path d="M328.99,187.23H241.21l12.57-41.59a20.008,20.008,0,0,1,19.15-14.22H385.29a20,20,0,0,1,19.14,14.22L417,187.23Z" style="fill:#0000"/><path d="M409.47,243.34v20.64a5.476,5.476,0,0,1-5.48,5.48H387.62a5.476,5.476,0,0,1-5.48-5.48V243.34Z" style="fill:#0000"/><path d="M276.07,243.34v20.64a5.473,5.473,0,0,1-5.47,5.48H254.22a5.473,5.473,0,0,1-5.47-5.48V243.34Z" style="fill:#0000"/><path d="M134.18,112.67a48.174,48.174,0,1,1-37.94,18.48A48.179,48.179,0,0,1,134.18,112.67Z" style="fill:rgb(35, 184, 15);"/><path d="M89.17,382H249v72H173.37a7,7,0,0,0,0,14H343.41a7,7,0,1,0,0-14H263V382H422.83c25.916,0,47.17-20.844,47.17-46.76V91a47.2,47.2,0,0,0-47.17-47H89.17A47.2,47.2,0,0,0,42,91V335.24C42,361.156,63.254,382,89.17,382Zm333.66-14H89.17A32.979,32.979,0,0,1,56,335.24V307H456v28.24A32.979,32.979,0,0,1,422.83,368ZM89.17,58H422.83A33.183,33.183,0,0,1,456,91V293H56V91A33.183,33.183,0,0,1,89.17,58Z" style="fill:#ffff;"/><path d="M134.18,216.03a55.18,55.18,0,1,0-43.449-89.2,55.185,55.185,0,0,0,3.342,71.917A55.406,55.406,0,0,0,134.18,216.03Zm-32.431-80.561A41.183,41.183,0,1,1,93,160.85,40.968,40.968,0,0,1,101.749,135.469Z" style="fill:rgb(94, 110, 152);"/><path d="M121.178,176.347a7,7,0,0,0,9.739.883l26.931-21.91a7,7,0,0,0-8.835-10.86l-21.63,17.6-7.131-8.346a7,7,0,0,0-10.644,9.095Z" style="fill:#ffff"/><path d="M86,242h85a7,7,0,0,0,0-14H86a7,7,0,0,0,0,14Z" style="fill:#ffff"/><path d="M86,272h56a7,7,0,0,0,0-14H86a7,7,0,0,0,0,14Z" style="fill:#ffff"/><path d="M234.11,250H242v13.98A11.892,11.892,0,0,0,254.22,276H270.6A12.044,12.044,0,0,0,283,263.98V250h92v13.98c0,6.881,5.739,12.02,12.62,12.02h16.37A11.714,11.714,0,0,0,416,263.98V250h8.11A16.638,16.638,0,0,0,441,233.34V197.23A17.124,17.124,0,0,0,424.11,180H422.2l-11.064-36.71A26.927,26.927,0,0,0,385.29,124H272.93a26.933,26.933,0,0,0-25.851,19.29L236.013,180h-1.9A17.311,17.311,0,0,0,217,197.23v36.11A16.826,16.826,0,0,0,234.11,250ZM269,262H256V250h13Zm133,0H389V250h13ZM260.48,147.34A13.017,13.017,0,0,1,272.93,138H385.29a13.007,13.007,0,0,1,12.439,9.341L407.572,180h-57.2l15.606-11.33a6.932,6.932,0,0,0,1.506-9.727,7.018,7.018,0,0,0-9.785-1.592L326.7,180H250.64ZM231,197.23a3.3,3.3,0,0,1,3.11-3.23h190a3.118,3.118,0,0,1,2.89,3.23v36.11a2.638,2.638,0,0,1-2.89,2.66h-190a2.829,2.829,0,0,1-3.11-2.66Z" style="fill:orange"/><path d="M265.72,223h10.95a7,7,0,0,0,0-14H265.72a7,7,0,0,0,0,14Z" style="fill:#63316d"/><path d="M387.02,223h10.95a7,7,0,0,0,0-14H387.02a7,7,0,0,0,0,14Z" style="fill:#63316d"/><path d="M314.32,107h29.57a7,7,0,0,0,0-14H314.32a7,7,0,0,0,0,14Z" style="fill:#0000"/></svg>
