<?xml version="1.0"?>
<svg xmlns="http://www.w3.org/2000/svg" id="Layer_1" data-name="Layer 1" viewBox="0 0 512 512" width="512" height="512"><title>Car bill</title><path d="M456,310.7l-44.73.35L396.44,284.2h.01s22.78-.08,33.85-.16,20.17,5.22,22.92,13.26A55.958,55.958,0,0,1,456,310.7Z" style="fill:rgb(94, 110, 152);"/><path d="M444.2,349.06l-9.71,77.89a16.828,16.828,0,0,1-16.66,16.9l-1.79.01-42.25.31-233.62,1.72-42.25.31-2.23.02a16.829,16.829,0,0,1-16.91-16.65L68.36,351.83c-.13-17.32,11.83-33.09,29.14-33.25l-.07.13,201.22-1.48,69.57-.51,45.94-.34v.01C431.5,316.26,444.07,331.72,444.2,349.06Zm-51.4,47.9a17.39,17.39,0,1,0-17.52-17.27A17.4,17.4,0,0,0,392.8,396.96Zm-272.33,2a17.39,17.39,0,1,0-17.52-17.26A17.387,17.387,0,0,0,120.47,398.96Z" style="fill:rgb(94, 110, 152);"/><path d="M416.26,474.42a8.389,8.389,0,0,1-8.32,8.46l-25.48.18a8.38,8.38,0,0,1-8.45-8.32l-.21-29.2-.01-1.37,42.25-.31.01,1.37Z" style="fill:rgb(94, 110, 152);"/><path d="M97.5,318.58l2.95-5.31,14.89-26.84,15.81-28.51c8.66-18.19,22.57-33.59,41.39-33.73l167.03-1.23c18.82-.13,31.11,15.07,41.4,33.22l15.47,28.02,14.83,26.85,2.94,5.33h-.05l-45.94.34-.01-1.15a34.786,34.786,0,1,0-69.57.51l.01,1.15L97.43,318.71Z" style="fill: rgb(94, 110, 152);"/><path d="M410.06,379.44a17.39,17.39,0,1,1-17.52-17.26A17.4,17.4,0,0,1,410.06,379.44Z" style="fill: orange;"/><path d="M368.21,315.57l.01,1.15-69.57.51-.01-1.15a34.786,34.786,0,1,1,69.57-.51Z" style="fill:rgb(94, 110, 152);"/><path d="M256,26.9a82.525,82.525,0,1,1-82.49,82.49A82.494,82.494,0,0,1,256,26.9Z" style="fill:rgb(35, 184, 15);"/><path d="M140.4,476.46a8.4,8.4,0,0,1-8.33,8.45l-25.48.19a8.4,8.4,0,0,1-8.45-8.33l-.21-29.19-.01-1.38,42.25-.31.01,1.37Z" style="fill:rgb(94, 110, 152);"/><path d="M137.73,381.45a17.39,17.39,0,1,1-17.52-17.27A17.387,17.387,0,0,1,137.73,381.45Z" style="fill:orange"/><path d="M115.34,286.43l-14.89,26.84-.03-.01L56,313.65a55.956,55.956,0,0,1,2.59-13.44c2.62-8.08,11.64-13.51,22.72-13.6s33.99-.2,33.99-.2Z" style="fill:rgb(94, 110, 152);"/><path d="M120.338,357h-.179a24.5,24.5,0,0,0,.178,49h.184a24.5,24.5,0,0,0-.183-49Zm.081,35h-.079a10.347,10.347,0,0,1-7.3-3.007A10.536,10.536,0,0,1,120.261,371h.076a10.5,10.5,0,0,1,.082,21Z" style="fill:#ffff"/><path d="M392.489,355.18a24.41,24.41,0,0,0,.179,48.82h.183a24.413,24.413,0,0,0,16.935-41.8A24.321,24.321,0,0,0,392.489,355.18Zm10.571,24.312a10.39,10.39,0,0,1-17.683,7.478A10.518,10.518,0,0,1,392.591,369h.077a10.553,10.553,0,0,1,10.392,10.446Z" style="fill:#ffff"/><path d="M459.843,295.015C456.1,284.06,444.62,277,430.555,277h-.306c-8.14,0-22.6.138-29.684.165l-13.5-24.427C377.345,235.6,363.2,216,339.808,216h-.289l-167.031,1.21c-19.168.143-36.052,13.455-47.563,37.512l-13.713,24.715c-7.084.038-21.76.117-29.959.176-14.217.115-25.727,7.352-29.319,18.432a63.16,63.16,0,0,0-2.928,15.317,7.4,7.4,0,0,0,1.965,5.332A7.174,7.174,0,0,0,56,321h.062l18.547-.338c-8.213,7.343-13.344,18.51-13.249,31.308a6.286,6.286,0,0,0,.063.833l10.366,77.319a23.845,23.845,0,0,0,19.178,22.659l.173,24A15.379,15.379,0,0,0,106.54,492h.1l25.489-.14A15.4,15.4,0,0,0,147.4,476.382l-.177-23.554,219.617-1.611.17,23.566A15.333,15.333,0,0,0,382.373,490h.137L408,489.85a15.394,15.394,0,0,0,15.259-15.5l-.174-24.132a23.812,23.812,0,0,0,18.4-22.827l9.658-77.471a6.865,6.865,0,0,0,.054-.918,41.818,41.818,0,0,0-10.325-27.473,38.018,38.018,0,0,0-3.756-3.685l18.936-.148a7,7,0,0,0,6.934-7.4A63.145,63.145,0,0,0,459.843,295.015Zm-322.571-33.7c.07-.126.136-.254.2-.385,5.259-11.048,16.816-29.583,35.121-29.719L339.618,230h.192c12.786,0,23.287,8.869,35.032,29.584L402.4,309.477l-27.651.179A41.879,41.879,0,0,0,333.428,274h-.309a41.824,41.824,0,0,0-41.111,36.269l-182.639,1.348Zm223.266,48.441-54.315.389a27.738,27.738,0,0,1,27-22.144h.2A27.857,27.857,0,0,1,360.538,309.755Zm-295.29-7.386c1.679-5.175,8.155-8.694,16.112-8.759,5.776-.041,14.775-.094,22.062-.135L96.31,306.3l-32.213.284C64.4,305.256,64.772,303.831,65.248,302.369ZM133.4,476.5a1.358,1.358,0,0,1-1.381,1.356l-25.475.14h-.009a1.357,1.357,0,0,1-1.395-1.331l-.17-23.542,28.253-.2Zm274.491-.624-25.492.18a1.376,1.376,0,0,1-.979-.4,1.348,1.348,0,0,1-.41-.973l-.17-23.569,28.25-.208.17,23.568A1.39,1.39,0,0,1,407.891,475.88Zm19.653-49.8a7.051,7.051,0,0,0-.054.919,9.788,9.788,0,0,1-9.7,9.847l-319.93,2.24L95.637,439h-.075a9.64,9.64,0,0,1-9.782-9.538,6.527,6.527,0,0,0-.062-.849L75.36,351.347c.083-12.287,7.874-24.757,21.03-25.584a7.146,7.146,0,0,0,1.04.237h.051L414,323.332c.055,0,.108-.332.163-.332h.212a21.436,21.436,0,0,1,16.022,7.619,28.437,28.437,0,0,1,6.8,17.96ZM415.383,304.017l-7.1-12.883c7.27-.03,16.274-.134,22.072-.134h.2c7.863,0,14.3,3.432,16.047,8.542.5,1.458.9,2.891,1.214,4.212Z" style="fill:#ffff"/><path d="M306.041,411h-.053l-98.509.965a7.018,7.018,0,0,0,.05,14.035h.053l98.51-.63a7.188,7.188,0,0,0-.051-14.37Z" style="fill:rgb(94, 110, 152);"/><path d="M212.079,389h.054a6.914,6.914,0,0,0,6.947-6.973l-.12-16.055a7.022,7.022,0,0,0-7-6.972h-.054a7.039,7.039,0,0,0-6.947,7.118l.12,15.982A6.96,6.96,0,0,0,212.079,389Z" style="fill:orange"/><path d="M182.281,359h-.053a7.135,7.135,0,0,0-6.948,7.228l.12,15.922a6.919,6.919,0,0,0,7,6.85h.054a6.826,6.826,0,0,0,6.947-6.868l-.12-16.1A7.071,7.071,0,0,0,182.281,359Z" style="fill:orange"/><path d="M330.691,358h-.048a7.1,7.1,0,0,0-6.953,7.178l.11,15.945a6.936,6.936,0,0,0,7,6.877h.049a6.865,6.865,0,0,0,6.952-6.908l-.11-16.08A7.051,7.051,0,0,0,330.691,358Z" style="fill:orange"/><path d="M241.759,389h.053a7.008,7.008,0,0,0,6.948-7.083l-.12-16.045a7,7,0,1,0-14,.095l.12,16.058A7.024,7.024,0,0,0,241.759,389Z" style="fill:orange"/><path d="M271.439,389h.054a7.1,7.1,0,0,0,6.947-7.193l-.12-15.944a6.928,6.928,0,0,0-7-6.863h-.053a6.852,6.852,0,0,0-6.948,6.9l.12,16.092A7.055,7.055,0,0,0,271.439,389Z" style="fill:#ffff"/><path d="M301.119,389h.054c3.865-1,6.975-3.437,6.947-7.3L308,365.542a7.048,7.048,0,0,0-7.053-7.01A6.976,6.976,0,0,0,294,365.554l.12,16.264A7.2,7.2,0,0,0,301.119,389Z" style="fill:#ffff"/><path d="M256,198.88a89.43,89.43,0,1,0-78.376-46.252A89.592,89.592,0,0,0,256,198.88ZM256,33.9a75.525,75.525,0,1,1-75.49,75.49A75.576,75.576,0,0,1,256,33.9Z" style="fill:#ffff"/><path d="M256.1,152.855c-.033,0-.065,0-.1,0s-.064,0-.1,0A16.906,16.906,0,0,1,239.11,135.97a7,7,0,0,0-14,0A30.939,30.939,0,0,0,249,166.051v8.019a7,7,0,0,0,14,0v-8.019a30.887,30.887,0,0,0-7-60.971A16.885,16.885,0,1,1,272.89,88.2a7,7,0,0,0,14,0A30.939,30.939,0,0,0,263,58.119V51.18a7,7,0,0,0-14,0v6.939a30.881,30.881,0,0,0,7,60.961,16.888,16.888,0,0,1,.1,33.775Z" style="fill:#ffff"/></svg>
